<?xml version="1.0" encoding="UTF-8"?>
<svg width="2525px" height="260px" viewBox="0 0 2525 260" version="1.1" xmlns="http://www.w3.org/2000/svg" xmlns:xlink="http://www.w3.org/1999/xlink">
    <title>metamask for cobo vault</title>
    <defs>
        <rect id="path-1" x="0" y="0" width="260" height="260"></rect>
        <rect id="path-3" x="0" y="0" width="260" height="260"></rect>
        <rect id="path-5" x="0" y="0" width="260" height="260"></rect>
    </defs>
    <g id="页面-1" stroke="none" stroke-width="1" fill="none" fill-rule="evenodd">
        <g id="metamask-for-cobo-vault">
            <path d="M348.035044,197.371715 L348.035044,138.498123 L378.873592,197.371715 L396.745932,197.371715 L427.409262,138.848561 L427.409262,197.371715 L455.444305,197.371715 L455.444305,79.9749687 L427.234043,79.9749687 L387.809762,152.690864 L348.385482,79.9749687 L320,79.9749687 L320,197.371715 L348.035044,197.371715 Z M518.610763,200 C538.760951,200 554.705882,191.06383 562.2403,172.490613 L537.359199,167.409262 C532.628285,175.994994 525.093867,177.571965 518.610763,177.571965 C509.148936,177.571965 501.964956,171.088861 499.687109,160.57572 L564.16771,160.57572 L564.16771,153.39174 C563.642053,124.65582 543.667084,106.783479 518.785982,106.783479 C493.204005,106.783479 472.177722,125.707134 472.177722,153.39174 C472.177722,181.251564 493.204005,200 518.610763,200 Z M536.483104,143.404255 L500.212766,143.404255 C502.841051,134.468085 510.901126,129.561952 518.785982,129.561952 C526.846058,129.561952 533.854819,133.942428 536.483104,143.404255 Z M622.077597,200 C632.065081,200 639.249061,197.196496 646.082603,193.516896 L639.599499,171.439299 C635.9199,173.541927 630.663329,174.94368 626.808511,174.94368 C619.449312,174.94368 615.068836,171.26408 615.068836,162.152691 L615.068836,131.664581 L641.001252,131.664581 L641.001252,109.411765 L615.068836,109.411765 L615.068836,79.9749687 L587.033792,79.9749687 L587.033792,109.411765 L571.088861,109.411765 L571.088861,131.664581 L587.033792,131.664581 L587.033792,164.956195 C587.033792,188.085106 600.175219,200 622.077597,200 Z M687.346683,200 C699.086358,200 707.496871,196.145181 713.629537,190.888611 L713.629537,197.371715 L740.613267,197.371715 L740.613267,141.652065 C740.613267,119.22403 725.018773,106.783479 700.312891,106.783479 C679.286608,106.783479 663.867334,117.47184 660.012516,134.468085 L686.470588,139.899875 C687.87234,132.190238 692.778473,128.861076 701.188986,128.861076 C708.548185,128.861076 713.629537,133.767209 713.629537,141.126408 L713.629537,142.878598 L691.201502,142.878598 C667.722153,142.878598 654.580726,154.092616 654.580726,171.26408 C654.580726,188.610763 667.722153,200 687.346683,200 Z M695.231539,178.973717 C687.87234,178.973717 682.966208,175.469337 682.966208,169.862328 C682.966208,164.430538 687.346683,160.750939 694.355444,160.750939 L713.629537,160.750939 L713.629537,162.678348 C713.629537,172.490613 704.868586,178.973717 695.231539,178.973717 Z M788.360451,197.371715 L788.360451,138.498123 L819.198999,197.371715 L837.071339,197.371715 L867.734668,138.848561 L867.734668,197.371715 L895.769712,197.371715 L895.769712,79.9749687 L867.559449,79.9749687 L828.135169,152.690864 L788.710889,79.9749687 L760.325407,79.9749687 L760.325407,197.371715 L788.360451,197.371715 Z M944.918648,200 C956.658323,200 965.068836,196.145181 971.201502,190.888611 L971.201502,197.371715 L998.185232,197.371715 L998.185232,141.652065 C998.185232,119.22403 982.590738,106.783479 957.884856,106.783479 C936.858573,106.783479 921.439299,117.47184 917.584481,134.468085 L944.042553,139.899875 C945.444305,132.190238 950.350438,128.861076 958.760951,128.861076 C966.12015,128.861076 971.201502,133.767209 971.201502,141.126408 L971.201502,142.878598 L948.773467,142.878598 C925.294118,142.878598 912.152691,154.092616 912.152691,171.26408 C912.152691,188.610763 925.294118,200 944.918648,200 Z M952.803504,178.973717 C945.444305,178.973717 940.538173,175.469337 940.538173,169.862328 C940.538173,164.430538 944.918648,160.750939 951.927409,160.750939 L971.201502,160.750939 L971.201502,162.678348 C971.201502,172.490613 962.440551,178.973717 952.803504,178.973717 Z M1053.29161,200 C1076.42053,200 1093.24155,189.837297 1093.24155,170.387985 C1093.24155,157.421777 1085.53191,147.434293 1068.88611,143.929912 L1048.21026,139.724656 C1042.60325,138.498123 1041.55194,136.045056 1041.55194,133.59199 C1041.55194,130.438048 1044.00501,126.758448 1051.53942,126.758448 C1060.12516,126.758448 1065.38173,131.664581 1066.25782,137.09637 L1091.8398,132.015019 C1088.33542,116.770964 1073.79224,106.783479 1051.88986,106.783479 C1029.63705,106.783479 1014.04255,118.523154 1014.04255,136.570713 C1014.04255,150.413016 1023.32916,159.173967 1039.62453,162.152691 L1057.49687,165.657071 C1063.97997,166.883605 1066.25782,169.161452 1066.25782,172.140175 C1066.25782,175.994994 1062.22778,179.148936 1054.86859,179.148936 C1047.33417,179.148936 1040.50063,176.345432 1039.27409,168.811014 L1011.93992,174.418023 C1014.91865,192.465582 1032.61577,200 1053.29161,200 Z M1138.36045,197.371715 L1138.36045,182.478098 L1151.6771,167.409262 L1175.15645,197.371715 L1209.67459,197.371715 L1170.42553,146.20776 L1202.84105,109.411765 L1170.07509,109.411765 L1138.36045,144.630788 L1138.36045,62.4530663 L1110.32541,62.4530663 L1110.32541,197.371715 L1138.36045,197.371715 Z M1297.28411,197.371715 L1297.28411,131.664581 L1321.46433,131.664581 L1321.46433,109.411765 L1297.28411,109.411765 L1297.28411,95.0438048 C1297.28411,88.0350438 1302.01502,84.0050063 1308.67334,84.0050063 C1310.77597,84.0050063 1313.57947,84.5306633 1316.20776,85.4067584 L1322.16521,63.6795995 C1316.5582,61.2265332 1310.77597,60 1304.81852,60 C1283.61702,60 1269.42428,73.1414268 1269.42428,93.8172716 L1269.42428,109.411765 L1256.80851,109.411765 L1256.80851,131.664581 L1269.42428,131.664581 L1269.42428,197.371715 L1297.28411,197.371715 Z M1375.5194,199.824781 C1401.62703,199.824781 1423.70463,181.251564 1423.70463,153.39174 C1423.70463,125.707134 1401.62703,107.133917 1375.5194,107.133917 C1348.88611,107.133917 1326.80851,125.707134 1326.80851,153.39174 C1326.80851,181.251564 1348.88611,199.824781 1375.5194,199.824781 Z M1375.5194,176.170213 C1364.13016,176.170213 1353.79224,167.234043 1353.79224,153.39174 C1353.79224,139.724656 1364.13016,130.613267 1375.5194,130.613267 C1386.38298,130.613267 1396.7209,139.724656 1396.7209,153.39174 C1396.7209,167.234043 1386.38298,176.170213 1375.5194,176.170213 Z M1468.47309,197.371715 L1468.47309,169.862328 C1468.47309,147.083855 1479.16145,136.921151 1498.78598,136.921151 L1503.86733,136.921151 L1505.09387,108.886108 C1502.99124,108.360451 1501.23905,108.185232 1498.78598,108.185232 C1484.41802,108.185232 1474.78098,115.71965 1468.47309,126.232791 L1468.47309,109.411765 L1440.43805,109.411765 L1440.43805,197.371715 L1468.47309,197.371715 Z M1620.38798,200 C1650.52566,200 1674.18023,182.828536 1679.61202,153.39174 L1651.22653,147.784731 C1647.1965,165.306633 1635.2816,173.717146 1620.38798,173.717146 C1601.81477,173.717146 1586.92115,158.64831 1586.92115,138.673342 C1586.92115,118.698373 1601.81477,103.804756 1620.38798,103.804756 C1635.45682,103.804756 1647.37171,112.04005 1651.05131,129.036295 L1679.4368,122.377972 C1673.82979,94.5181477 1649.29912,77.3466834 1620.38798,77.3466834 C1585.5194,77.3466834 1558.01001,104.330413 1558.01001,138.673342 C1558.01001,173.191489 1585.5194,200 1620.38798,200 Z M1741.02628,199.824781 C1767.13392,199.824781 1789.21151,181.251564 1789.21151,153.39174 C1789.21151,125.707134 1767.13392,107.133917 1741.02628,107.133917 C1714.39299,107.133917 1692.31539,125.707134 1692.31539,153.39174 C1692.31539,181.251564 1714.39299,199.824781 1741.02628,199.824781 Z M1741.02628,176.170213 C1729.63705,176.170213 1719.29912,167.234043 1719.29912,153.39174 C1719.29912,139.724656 1729.63705,130.613267 1741.02628,130.613267 C1751.88986,130.613267 1762.22778,139.724656 1762.22778,153.39174 C1762.22778,167.234043 1751.88986,176.170213 1741.02628,176.170213 Z M1861.31414,200 C1884.61827,200 1904.2428,181.251564 1904.2428,153.39174 C1904.2428,125.707134 1884.61827,106.783479 1861.31414,106.783479 C1849.92491,106.783479 1840.81352,110.28786 1833.97997,116.420526 L1833.97997,62.4530663 L1805.94493,62.4530663 L1805.94493,197.371715 L1833.97997,197.371715 L1833.97997,190.362954 C1840.81352,196.49562 1849.92491,200 1861.31414,200 Z M1855.53191,176.170213 C1844.14268,176.170213 1833.97997,167.058824 1833.97997,153.39174 C1833.97997,139.899875 1844.14268,130.613267 1855.53191,130.613267 C1867.79725,130.613267 1876.73342,139.899875 1876.73342,153.39174 C1876.73342,167.058824 1867.79725,176.170213 1855.53191,176.170213 Z M1963.90488,199.824781 C1990.01252,199.824781 2012.09011,181.251564 2012.09011,153.39174 C2012.09011,125.707134 1990.01252,107.133917 1963.90488,107.133917 C1937.27159,107.133917 1915.19399,125.707134 1915.19399,153.39174 C1915.19399,181.251564 1937.27159,199.824781 1963.90488,199.824781 Z M1963.90488,176.170213 C1952.51564,176.170213 1942.17772,167.234043 1942.17772,153.39174 C1942.17772,139.724656 1952.51564,130.613267 1963.90488,130.613267 C1974.76846,130.613267 1985.10638,139.724656 1985.10638,153.39174 C1985.10638,167.234043 1974.76846,176.170213 1963.90488,176.170213 Z M2140.52566,197.371715 L2190.46308,79.9749687 L2158.57322,79.9749687 L2126.50814,157.772215 L2094.61827,79.9749687 L2062.72841,79.9749687 L2112.66583,197.371715 L2140.52566,197.371715 Z M2218.93617,200 C2230.67584,200 2239.08636,196.145181 2245.21902,190.888611 L2245.21902,197.371715 L2272.20275,197.371715 L2272.20275,141.652065 C2272.20275,119.22403 2256.60826,106.783479 2231.90238,106.783479 C2210.8761,106.783479 2195.45682,117.47184 2191.602,134.468085 L2218.06008,139.899875 C2219.46183,132.190238 2224.36796,128.861076 2232.77847,128.861076 C2240.13767,128.861076 2245.21902,133.767209 2245.21902,141.126408 L2245.21902,142.878598 L2222.79099,142.878598 C2199.31164,142.878598 2186.17021,154.092616 2186.17021,171.26408 C2186.17021,188.610763 2199.31164,200 2218.93617,200 Z M2226.82103,178.973717 C2219.46183,178.973717 2214.55569,175.469337 2214.55569,169.862328 C2214.55569,164.430538 2218.93617,160.750939 2225.94493,160.750939 L2245.21902,160.750939 L2245.21902,162.678348 C2245.21902,172.490613 2236.45807,178.973717 2226.82103,178.973717 Z M2324.15519,200 C2335.19399,200 2344.4806,195.969962 2351.13892,188.961202 L2351.13892,197.371715 L2379.17397,197.371715 L2379.17397,109.411765 L2351.13892,109.411765 L2351.13892,150.237797 C2351.13892,167.234043 2343.95494,174.768461 2332.91615,174.768461 C2323.97997,174.768461 2317.84731,167.7597 2317.84731,157.421777 L2317.84731,109.411765 L2289.98748,109.411765 L2289.98748,163.379224 C2289.98748,185.456821 2303.65457,200 2324.15519,200 Z M2430.77597,200 C2440.93867,200 2446.37046,197.021277 2451.45181,194.56821 L2447.07134,172.665832 C2443.0413,174.067584 2439.3617,175.118899 2436.90864,175.118899 C2431.82728,175.118899 2428.49812,171.964956 2428.49812,167.409262 L2428.49812,62.4530663 L2400.46308,62.4530663 L2400.46308,169.51189 C2400.46308,187.734668 2412.55319,200 2430.77597,200 Z M2500.07509,200 C2510.06258,200 2517.24656,197.196496 2524.0801,193.516896 L2517.597,171.439299 C2513.9174,173.541927 2508.66083,174.94368 2504.80601,174.94368 C2497.44681,174.94368 2493.06633,171.26408 2493.06633,162.152691 L2493.06633,131.664581 L2518.99875,131.664581 L2518.99875,109.411765 L2493.06633,109.411765 L2493.06633,79.9749687 L2465.03129,79.9749687 L2465.03129,109.411765 L2449.08636,109.411765 L2449.08636,131.664581 L2465.03129,131.664581 L2465.03129,164.956195 C2465.03129,188.085106 2478.17272,200 2500.07509,200 Z" id="MetaMaskforCoboVault" fill="#000000" fill-rule="nonzero"></path>
            <g id="画板">
                <g id="蒙版" fill="#FFFFFF" fill-opacity="0" fill-rule="nonzero">
                    <rect id="path-1" x="0" y="0" width="260" height="260"></rect>
                </g>
                <g id="编组-Clipped">
                    <mask id="mask-2" fill="white">
                        <use xlink:href="#path-1"></use>
                    </mask>
                    <g id="path-1"></g>
                    <g id="编组" mask="url(#mask-2)">
                        <g transform="translate(0.000000, -14.218750)" id="icn-metamask">
                            <g id="矩形" fill="#D8D8D8" fill-opacity="0" fill-rule="nonzero">
                                <rect id="path-3" x="0" y="0" width="260" height="260"></rect>
                            </g>
                            <g id="编组-2-Clipped">
                                <mask id="mask-4" fill="white">
                                    <use xlink:href="#path-3"></use>
                                </mask>
                                <g id="path-3"></g>
                                <g id="编组-2" mask="url(#mask-4)">
                                    <g transform="translate(14.218750, 22.343750)" id="路径">
                                        <g transform="translate(0.935222, 0.705963)">
                                            <polygon stroke="#E2761B" stroke-width="2.03125" fill="#E2761B" fill-rule="nonzero" points="218.252072 8.27486227e-13 128.627184 66.5655467 145.200932 27.2928356"></polygon>
                                            <polygon stroke="#E4761B" stroke-width="2.03125" fill="#E4761B" fill-rule="nonzero" points="11.3496194 1.27009514e-12 100.253673 67.1960949 84.4903542 27.2928356"></polygon>
                                            <polygon stroke="#E4761B" stroke-width="2.03125" fill="#E4761B" fill-rule="nonzero" points="186.005139 154.298791 162.135213 190.869043 213.208458 204.920599 227.890177 155.109221"></polygon>
                                            <polygon stroke="#E4761B" stroke-width="2.03125" fill="#E4761B" fill-rule="nonzero" points="1.89159745 155.109221 16.4837527 204.920599 67.5563809 190.869043 43.6864549 154.298791"></polygon>
                                            <polygon stroke="#E4761B" stroke-width="2.03125" fill="#E4761B" fill-rule="nonzero" points="64.6736549 92.5073837 50.4417556 114.035384 101.154236 116.287176 99.3523393 61.7916386"></polygon>
                                            <polygon stroke="#E4761B" stroke-width="2.03125" fill="#E4761B" fill-rule="nonzero" points="164.927036 92.5073837 129.798147 61.1610905 128.627184 116.287176 179.248991 114.035384"></polygon>
                                            <polygon stroke="#E4761B" stroke-width="2.03125" fill="#E4761B" fill-rule="nonzero" points="67.5564579 190.869043 98.00188 176.007058 71.6998949 155.469754"></polygon>
                                            <polygon stroke="#E4761B" stroke-width="2.03125" fill="#E4761B" fill-rule="nonzero" points="131.600043 176.007058 162.135213 190.869043 157.902028 155.469754"></polygon>
                                            <polygon stroke="#D7C1B3" stroke-width="2.03125" fill="#D7C1B3" fill-rule="nonzero" points="162.135213 190.869043 131.600043 176.007058 134.032102 195.913428 133.761702 204.290436"></polygon>
                                            <polygon stroke="#D7C1B3" stroke-width="2.03125" fill="#D7C1B3" fill-rule="nonzero" points="67.5564579 190.869043 95.9303542 204.290436 95.7500875 195.913428 98.00188 176.007058"></polygon>
                                            <polygon stroke="#233447" stroke-width="2.03125" fill="#233447" fill-rule="nonzero" points="96.3802505 142.318761 70.9790593 134.842317 88.9038061 126.645576"></polygon>
                                            <polygon stroke="#233447" stroke-width="2.03125" fill="#233447" fill-rule="nonzero" points="133.220902 142.318761 140.697347 126.645576 158.712458 134.842317"></polygon>
                                            <polygon stroke="#CD6116" stroke-width="2.03125" fill="#CD6116" fill-rule="nonzero" points="67.5563809 190.869043 71.8799305 154.298791 43.6864549 155.109221"></polygon>
                                            <polygon stroke="#CD6116" stroke-width="2.03125" fill="#CD6116" fill-rule="nonzero" points="157.811895 154.298791 162.135213 190.869043 186.005139 155.109221"></polygon>
                                            <polygon stroke="#CD6116" stroke-width="2.03125" fill="#CD6116" fill-rule="nonzero" points="179.248991 114.034613 128.627184 116.287176 133.311036 142.318761 140.78748 126.645576 158.801821 134.842317"></polygon>
                                            <polygon stroke="#CD6116" stroke-width="2.03125" fill="#CD6116" fill-rule="nonzero" points="70.9732816 134.842317 88.9885468 126.645576 96.3740875 142.318761 101.148073 116.287176 50.4361319 114.034613"></polygon>
                                            <polygon stroke="#E4751F" stroke-width="2.03125" fill="#E4751F" fill-rule="nonzero" points="50.4417556 114.034613 71.6995098 155.469754 70.9789054 134.842317"></polygon>
                                            <polygon stroke="#E4751F" stroke-width="2.03125" fill="#E4751F" fill-rule="nonzero" points="158.802591 134.842317 157.902028 155.469754 179.249762 114.034613"></polygon>
                                            <polygon stroke="#E4751F" stroke-width="2.03125" fill="#E4751F" fill-rule="nonzero" points="101.154236 116.287176 96.3802505 142.318761 102.325199 173.034199 103.676428 132.590524"></polygon>
                                            <polygon stroke="#E4751F" stroke-width="2.03125" fill="#E4751F" fill-rule="nonzero" points="128.627184 116.287176 126.195125 132.500391 127.275954 173.034199 133.311036 142.318761"></polygon>
                                            <polygon stroke="#F6851B" stroke-width="2.03125" fill="#F6851B" fill-rule="nonzero" points="133.311036 142.318761 127.275954 173.034199 131.600043 176.007058 157.902028 155.469754 158.802591 134.842317"></polygon>
                                            <polygon stroke="#F6851B" stroke-width="2.03125" fill="#F6851B" fill-rule="nonzero" points="70.9790593 134.842317 71.6996637 155.469754 98.00188 176.007058 102.325199 173.034199 96.3802505 142.318761"></polygon>
                                            <polygon stroke="#C0AD9E" stroke-width="2.03125" fill="#C0AD9E" fill-rule="nonzero" points="133.761702 204.290436 134.032102 195.913428 131.78031 193.932036 97.8216135 193.932036 95.7500875 195.913428 95.9303542 204.290436 67.5564579 190.869043 77.4645765 198.97565 97.5512135 212.937843 132.049939 212.937843 152.22671 198.97565 162.135213 190.869043"></polygon>
                                            <polygon stroke="#161616" stroke-width="2.03125" fill="#161616" fill-rule="nonzero" points="131.599273 176.007058 127.275954 173.034199 102.325199 173.034199 98.0011098 176.007058 95.7493172 195.913428 97.820843 193.932036 131.779539 193.932036 134.031332 195.913428"></polygon>
                                            <polygon stroke="#763D16" stroke-width="2.03125" fill="#763D16" fill-rule="nonzero" points="222.035361 70.8892505 229.692072 34.1385007 218.252072 -1.41121682e-13 131.600043 64.313677 164.927806 92.5073837 212.037495 106.288539 222.486028 94.128243 217.982444 90.8857542 225.188488 84.310643 219.603302 79.9865542 226.809347 74.4922726"></polygon>
                                            <polygon stroke="#763D16" stroke-width="2.03125" fill="#763D16" fill-rule="nonzero" points="4.36194291e-13 34.1385007 7.65638679 70.8892505 2.7923299 74.4922726 9.99831272 79.9865542 4.5037539 84.310643 11.7097675 90.8857542 7.20602827 94.128243 17.5646594 106.288539 64.673963 92.5073837 98.00188 64.313677 11.3494653 -1.41121682e-13"></polygon>
                                            <polygon stroke="#F6851B" stroke-width="2.03125" fill="#F6851B" fill-rule="nonzero" points="212.037495 106.288539 164.927806 92.5073837 179.249762 114.034613 157.902028 155.469754 186.005139 155.109221 227.890177 155.109221"></polygon>
                                            <polygon stroke="#F6851B" stroke-width="2.03125" fill="#F6851B" fill-rule="nonzero" points="64.673963 92.5073837 17.5646594 106.288539 1.89159745 155.109221 43.6864549 155.109221 71.6998179 155.469754 50.4421409 114.034613"></polygon>
                                            <polygon stroke="#F6851B" stroke-width="2.03125" fill="#F6851B" fill-rule="nonzero" points="128.627184 116.287176 131.600043 64.3137542 145.291065 27.2928356 84.4903542 27.2928356 98.00188 64.3137542 101.154236 116.287176 102.235065 132.680658 102.325199 173.034199 127.275954 173.034199 127.456221 132.680658"></polygon>
                                        </g>
                                    </g>
                                </g>
                            </g>
                        </g>
                    </g>
                </g>
                <g id="编组-Clipped">
                    <mask id="mask-6" fill="white">
                        <use xlink:href="#path-5"></use>
                    </mask>
                    <g id="path-1"></g>
                    <g id="编组" mask="url(#mask-6)">
                        <g transform="translate(56.875000, 207.187500)" id="编组-2">
                            <rect id="矩形" fill="#3A5EFB" fill-rule="nonzero" x="0" y="0" width="146.25" height="48.75" rx="24.375"></rect>
                            <path d="M74.0446656,8.71563121 L74.0446656,26.1538323 C74.0364024,31.1980063 77.0677125,35.7446507 81.7144025,37.6591623 L81.7144025,37.6591623 C86.3617308,39.5749553 91.7005895,38.4786604 95.2252576,34.8857476 L95.2252576,34.8857476 L108.739942,21.3175763 C111.032811,19.0176637 114.625132,18.6610956 117.321049,20.4695656 L117.321049,20.4695656 C120.016965,22.2770746 121.066228,25.7437629 119.828047,28.751686 L119.828047,28.751686 C118.588908,31.7596092 115.406974,33.4706879 112.226635,32.8389246 L112.226635,32.8389246 C109.046296,32.2078023 106.75247,29.4097192 106.748002,26.1538323 L106.748002,26.1538323 L106.748002,25.956166 L102.034616,30.6879824 C104.208773,36.2453839 110.012269,39.464749 115.855974,38.3569209 L115.855974,38.3569209 C121.699679,37.2478115 125.932472,32.1241865 125.9375,26.1538323 L125.9375,26.1538323 C125.970766,21.1119009 122.966581,16.5492382 118.332975,14.6036511 L118.332975,14.6036511 C113.699049,12.6587048 108.353489,13.7178371 104.802334,17.2835187 L104.802334,17.2835187 L98.5485615,23.5614249 C97.7204481,19.5257653 94.95273,16.1641574 91.1600022,14.5876328 L91.1600022,14.5876328 C87.3672743,13.0111082 83.0428944,13.4240609 79.6146004,15.6909757 L79.6146004,15.6909757 L79.6146004,8.71563121 C79.519503,7.24130357 78.3007879,6.09375 76.8293307,6.09375 L76.8293307,6.09375 C75.3578737,6.09375 74.1388395,7.24130357 74.0446656,8.71563121 M79.6146004,26.1538323 C79.6146004,22.3789514 82.6631431,19.3181677 86.423959,19.3181677 L86.423959,19.3181677 C90.1844558,19.3181677 93.2329984,22.3789514 93.2329984,26.1538323 L93.2329984,26.1538323 C93.2329984,29.9287133 90.1844558,32.9901378 86.423959,32.9901378 L86.423959,32.9901378 C82.6631431,32.9901378 79.6146004,29.9287133 79.6146004,26.1538323 M51.0681403,17.3184387 L37.4842071,30.9904087 C34.8224364,33.6529765 30.515289,33.6484913 27.8599009,30.9791958 L27.8599009,30.9791958 C25.2041934,28.3108615 25.2041934,23.9859108 27.8599009,21.3175763 L27.8599009,21.3175763 C30.515289,18.6489216 34.8224364,18.6444365 37.4842071,21.3063636 L37.4842071,21.3063636 C38.1744612,22.069477 39.2256388,22.3898437 40.2212897,22.1418799 L40.2212897,22.1418799 C41.2172597,21.8945569 41.9971862,21.1183083 42.2528005,20.1200456 L42.2528005,20.1200456 C42.5084146,19.1233847 42.1982312,18.0648931 41.4447914,17.3652122 L41.4447914,17.3652122 C36.6098212,12.5122972 28.7722616,12.5135786 23.938249,17.3661733 L23.938249,17.3661733 C19.103917,22.219729 19.103917,30.0888967 23.938249,34.9427729 L23.938249,34.9427729 C28.7722616,39.7947268 36.6098212,39.7966489 41.4447914,34.9430933 L41.4447914,34.9430933 L55.0057481,21.3175763 C57.2986172,19.0176637 60.8912576,18.6610956 63.5871738,20.4695656 L63.5871738,20.4695656 C66.28309,22.2770746 67.332353,25.7437629 66.0935336,28.751686 L66.0935336,28.751686 C64.8550331,31.7596092 61.6727796,33.4706879 58.4924409,32.8389246 L58.4924409,32.8389246 C55.3124213,32.2078023 53.0185949,29.4097192 53.0141272,26.1538323 L53.0141272,26.1538323 L53.0141272,25.956166 L48.3004222,30.6879824 C50.4637291,36.2556356 56.2710545,39.4865339 62.1205035,38.3764633 L62.1205035,38.3764633 C67.9702717,37.267674 72.202107,32.1315548 72.1916019,26.1538323 L72.1916019,26.1538323 C72.2177438,21.1183083 69.211325,16.563975 64.580591,14.6270379 L64.580591,14.6270379 C63.0430761,13.9843822 61.4283347,13.6723451 59.8263579,13.6723451 L59.8263579,13.6723451 C56.6035763,13.6723451 53.435045,14.9368325 51.0681403,17.3184387" id="Fill-19" fill="#FFFFFF" fill-rule="nonzero"></path>
                        </g>
                    </g>
                </g>
            </g>
        </g>
    </g>
</svg>